<svg width="131" height="28" viewBox="0 0 131 28" fill="none" xmlns="http://www.w3.org/2000/svg">
<g id="Logo">
<path id="Vector" d="M20.8497 12.4797C20.4972 12.8355 20.2273 13.2651 20.0592 13.7375C19.8911 14.2101 19.8288 14.714 19.8769 15.2134L19.8602 15.1966C19.9097 15.7845 19.8306 16.376 19.6287 16.9302C19.4268 17.4842 19.1069 17.9874 18.6913 18.4046C18.2756 18.8217 17.7742 19.1428 17.222 19.3454C16.67 19.548 16.0805 19.6273 15.4948 19.5777L15.5115 19.5945C14.8108 19.529 14.1071 19.682 13.4962 20.0327C12.8854 20.3833 12.3971 20.9145 12.0981 21.5538C11.7991 22.1931 11.7038 22.9094 11.8253 23.6051C11.9468 24.3007 12.2791 24.9418 12.7769 25.441C13.2748 25.9401 13.9138 26.273 14.6071 26.3943C15.3004 26.5156 16.014 26.4193 16.6507 26.1186C17.2875 25.8179 17.8163 25.3276 18.1652 24.7142C18.514 24.1008 18.6659 23.3944 18.6 22.6913L18.6177 22.7081C18.5682 22.1202 18.6472 21.5286 18.8491 20.9745C19.051 20.4205 19.371 19.9173 19.7866 19.5001C20.2023 19.083 20.7037 18.7618 21.2557 18.5593C21.8079 18.3567 22.3973 18.2773 22.9831 18.327L22.9654 18.3102C23.5378 18.3618 24.1139 18.2676 24.6404 18.0363C25.1668 17.8051 25.6265 17.4441 25.977 16.9871C26.3274 16.53 26.5573 15.9915 26.6451 15.4216C26.733 14.8516 26.6761 14.2687 26.4796 13.7266C26.2832 13.1846 25.9536 12.7011 25.5215 12.321C25.0893 11.9408 24.5685 11.6763 24.0073 11.552C23.4462 11.4277 22.8628 11.4475 22.3113 11.6096C21.7598 11.7718 21.2581 12.071 20.8525 12.4797H20.8497Z" fill="#929C9A"/>
<path id="Vector_2" d="M13.989 17.3935L13.9714 17.3767C14.4692 17.427 14.972 17.3657 15.4434 17.1972C15.9147 17.0286 16.3429 16.7571 16.6968 16.4021C17.0507 16.0472 17.3217 15.6177 17.4899 15.1448C17.6583 14.6718 17.7197 14.1674 17.67 13.6677L17.6877 13.6845C17.6382 13.0966 17.7172 12.505 17.919 11.9509C18.1209 11.3969 18.441 10.8937 18.8566 10.4765C19.2723 10.0594 19.7736 9.73824 20.3257 9.5357C20.8778 9.33304 21.4673 9.25377 22.0531 9.3034L22.0354 9.2866C22.7362 9.35268 23.4401 9.20013 24.0513 8.84989C24.6626 8.49965 25.1512 7.9687 25.4506 7.32949C25.7501 6.69029 25.8458 5.97393 25.7247 5.27812C25.6036 4.58231 25.2716 3.94094 24.7739 3.44148C24.2762 2.94202 23.6371 2.60878 22.9438 2.48725C22.2505 2.3657 21.5367 2.46175 20.8998 2.7623C20.2628 3.06284 19.7338 3.55326 19.3848 4.16666C19.0358 4.78004 18.8838 5.48655 18.9497 6.1898L18.9329 6.17206C18.9825 6.75996 18.9036 7.35164 18.7018 7.90578C18.5 8.45992 18.18 8.96316 17.7644 9.3804C17.3487 9.7975 16.8472 10.1187 16.2951 10.3212C15.7428 10.5237 15.1533 10.6029 14.5675 10.5531L14.5842 10.5709C14.0864 10.5206 13.5836 10.5819 13.1122 10.7504C12.6409 10.9189 12.2127 11.1905 11.8588 11.5455C11.5048 11.9004 11.2339 12.3299 11.0656 12.8028C10.8973 13.2758 10.8359 13.7802 10.8856 14.2799L10.8689 14.2631C10.9182 14.8509 10.839 15.4425 10.6371 15.9965C10.4351 16.5505 10.1152 17.0536 9.6996 17.4707C9.28395 17.8878 8.78264 18.2089 8.23063 18.4116C7.67862 18.6142 7.08919 18.6937 6.50347 18.6442L6.52021 18.661C5.81947 18.5949 5.11549 18.7474 4.50429 19.0977C3.89309 19.448 3.40442 19.9789 3.10495 20.6181C2.80547 21.2573 2.70976 21.9737 2.83087 22.6695C2.95199 23.3653 3.28403 24.0067 3.7817 24.5061C4.27938 25.0056 4.91846 25.3388 5.61179 25.4603C6.30511 25.5819 7.01891 25.4858 7.65584 25.1853C8.29276 24.8847 8.82181 24.3944 9.1708 23.781C9.51983 23.1675 9.67179 22.4611 9.60595 21.7578L9.62362 21.7746C9.57414 21.1867 9.65319 20.5951 9.8551 20.041C10.0569 19.487 10.3769 18.9838 10.7925 18.5666C11.2082 18.1495 11.7096 17.8284 12.2617 17.6258C12.8138 17.4232 13.4032 17.3439 13.989 17.3935Z" fill="#929C9A"/>
<path id="Vector_3" d="M7.75618 15.5205C8.10867 15.1647 8.37853 14.7352 8.54653 14.2626C8.71452 13.7901 8.7765 13.2861 8.72803 12.7867L8.74569 12.8035C8.69621 12.2155 8.77523 11.6237 8.97723 11.0695C9.17924 10.5153 9.49937 10.012 9.91527 9.59482C10.3312 9.17764 10.8327 8.85658 11.385 8.65409C11.9374 8.4516 12.5271 8.37254 13.113 8.42246L13.0953 8.40566C13.7958 8.47152 14.4995 8.31893 15.1104 7.96871C15.7213 7.61849 16.2097 7.08768 16.5091 6.44867C16.8083 5.80966 16.9039 5.09356 16.7829 4.39801C16.6618 3.70246 16.3298 3.06133 15.8323 2.56206C15.3348 2.06278 14.6959 1.72965 14.0029 1.60812C13.3099 1.48657 12.5963 1.58253 11.9596 1.8829C11.3228 2.18326 10.7939 2.67342 10.445 3.28653C10.096 3.89964 9.94391 4.60585 10.0096 5.30886L9.99283 5.29206C10.0423 5.87992 9.96325 6.47153 9.76135 7.02559C9.55945 7.57966 9.23955 8.08283 8.82387 8.49999C8.40821 8.91715 7.90683 9.23825 7.35474 9.44082C6.80266 9.64344 6.21317 9.72278 5.62741 9.67312L5.64415 9.68992C5.0718 9.6384 4.49575 9.73276 3.96938 9.96414C3.44302 10.1955 2.98337 10.5565 2.63303 11.0137C2.28269 11.4707 2.053 12.0093 1.96522 12.5792C1.87746 13.1491 1.93446 13.7321 2.13094 14.274C2.32742 14.816 2.65704 15.2994 3.08924 15.6794C3.52144 16.0596 4.04224 16.324 4.60338 16.4483C5.16452 16.5725 5.74784 16.5526 6.2993 16.3905C6.85076 16.2283 7.35249 15.9291 7.75803 15.5205H7.75618Z" fill="#929C9A"/>
<path id="Vector_4" d="M36.5648 6.21143H39.3269V19.7009H36.5648V6.21143Z" fill="#929C9A"/>
<path id="Vector_5" d="M40.8912 15.0818C40.8874 14.1125 41.1703 13.1636 41.7041 12.3558C42.2379 11.5479 42.9987 10.9171 43.89 10.5435C44.7813 10.1698 45.763 10.07 46.7108 10.2568C47.6587 10.4435 48.53 10.9083 49.2144 11.5925C49.8988 12.2765 50.3655 13.1491 50.5554 14.0996C50.7453 15.0501 50.6498 16.0358 50.281 16.9318C49.9123 17.8277 49.2869 18.5938 48.484 19.1327C47.681 19.6717 46.7369 19.9594 45.7709 19.9594C45.1298 19.9668 44.4935 19.8457 43.8995 19.6035C43.3054 19.3612 42.7654 19.0025 42.3111 18.5484C41.8567 18.0943 41.4972 17.5538 41.2534 16.9586C41.0096 16.3634 40.8864 15.7254 40.8912 15.0818ZM47.8885 15.0818C47.877 14.664 47.743 14.2588 47.5033 13.9169C47.2635 13.5752 46.9287 13.3118 46.5407 13.1599C46.1527 13.008 45.7287 12.9742 45.3216 13.0628C44.9145 13.1515 44.5425 13.3585 44.2521 13.6582C43.9618 13.9578 43.7657 14.3368 43.6888 14.7476C43.6118 15.1584 43.6571 15.5828 43.8192 15.9679C43.9813 16.353 44.2529 16.6816 44.5999 16.9126C44.9471 17.1436 45.3544 17.2668 45.7709 17.2668C46.0561 17.2744 46.3399 17.2226 46.6043 17.1147C46.8686 17.0068 47.1078 16.8452 47.3067 16.6399C47.5056 16.4346 47.6601 16.1902 47.7602 15.922C47.8603 15.6539 47.904 15.3678 47.8885 15.0818Z" fill="#929C9A"/>
<path id="Vector_6" d="M61.659 10.4617V19.235C61.659 22.3393 59.2466 23.6515 56.7979 23.6515C55.9358 23.7163 55.0725 23.5415 54.3027 23.1464C53.5331 22.7512 52.8866 22.151 52.4344 21.4115L54.791 20.0442C54.9811 20.4297 55.284 20.7477 55.659 20.9557C56.0342 21.1636 56.4637 21.2518 56.89 21.2081C57.1625 21.246 57.44 21.2219 57.702 21.1376C57.9639 21.0533 58.2036 20.911 58.4034 20.7212C58.6031 20.5314 58.7578 20.299 58.856 20.041C58.9541 19.7832 58.9932 19.5064 58.9704 19.2313V18.3866C58.6469 18.7837 58.2353 19.0993 57.7684 19.3079C57.3014 19.5165 56.7923 19.6124 56.2818 19.5878C55.067 19.5494 53.9148 19.0381 53.0691 18.162C52.2233 17.2861 51.7504 16.1142 51.7504 14.8945C51.7504 13.6749 52.2233 12.503 53.0691 11.627C53.9148 10.751 55.067 10.2397 56.2818 10.2013C56.7923 10.1767 57.3014 10.2726 57.7684 10.4812C58.2353 10.6898 58.6469 11.0053 58.9704 11.4025V10.4598L61.659 10.4617ZM58.9713 14.8959C58.9899 14.4492 58.8748 14.0071 58.6409 13.6266C58.407 13.246 58.0649 12.9444 57.6588 12.7607C57.2527 12.5768 56.8011 12.5192 56.362 12.5952C55.923 12.6712 55.5166 12.8772 55.1952 13.187C54.8739 13.4967 54.6523 13.8958 54.5588 14.333C54.4655 14.7701 54.5045 15.2254 54.6712 15.6401C54.8378 16.0548 55.1242 16.41 55.4936 16.6599C55.863 16.9099 56.2985 17.0432 56.744 17.0426C57.0342 17.063 57.3254 17.0221 57.5989 16.9226C57.8724 16.8231 58.1221 16.6671 58.3319 16.465C58.5418 16.2627 58.7071 16.0186 58.8172 15.7484C58.9273 15.4782 58.9799 15.1878 58.9713 14.8959Z" fill="#929C9A"/>
<path id="Vector_7" d="M63.2233 15.0818C63.2195 14.1125 63.5023 13.1636 64.0362 12.3558C64.57 11.5479 65.3307 10.9171 66.2221 10.5435C67.1134 10.1698 68.0951 10.07 69.0429 10.2568C69.9908 10.4435 70.8621 10.9083 71.5465 11.5925C72.2309 12.2765 72.6976 13.1491 72.8875 14.0996C73.0774 15.0501 72.9819 16.0358 72.6131 16.9318C72.2444 17.8277 71.6189 18.5938 70.8161 19.1327C70.0131 19.6717 69.069 19.9594 68.103 19.9594C67.4618 19.9668 66.8255 19.8457 66.2315 19.6035C65.6375 19.3612 65.0975 19.0025 64.6432 18.5484C64.1888 18.0943 63.8293 17.5538 63.5855 16.9586C63.3417 16.3634 63.2185 15.7254 63.2233 15.0818ZM70.2206 15.0818C70.2091 14.664 70.075 14.2588 69.8354 13.9169C69.5956 13.5752 69.2608 13.3118 68.8728 13.1599C68.4848 13.008 68.0607 12.9742 67.6537 13.0628C67.2466 13.1515 66.8746 13.3585 66.5842 13.6582C66.2939 13.9578 66.0978 14.3368 66.0208 14.7476C65.9438 15.1584 65.9892 15.5828 66.1513 15.9679C66.3134 16.353 66.5849 16.6816 66.932 16.9126C67.2792 17.1436 67.6864 17.2668 68.103 17.2668C68.3882 17.2744 68.672 17.2226 68.9363 17.1147C69.2007 17.0068 69.4399 16.8452 69.6388 16.6399C69.8377 16.4346 69.9922 16.1902 70.0923 15.922C70.1924 15.6539 70.2361 15.3678 70.2206 15.0818Z" fill="#929C9A"/>
<path id="Vector_8" d="M74.2708 7.98571C74.2708 7.65676 74.3679 7.3352 74.55 7.06169C74.7321 6.78818 74.991 6.575 75.2938 6.44912C75.5967 6.32323 75.9299 6.29029 76.2514 6.35447C76.5728 6.41864 76.8681 6.57705 77.0999 6.80966C77.3317 7.04225 77.4895 7.3386 77.5535 7.66124C77.6174 7.98386 77.5845 8.31828 77.4592 8.62219C77.3337 8.9261 77.1213 9.18586 76.8487 9.36863C76.5762 9.55138 76.2558 9.64891 75.928 9.64891C75.4899 9.64453 75.0708 9.46794 74.761 9.15693C74.4512 8.84596 74.2751 8.42546 74.2708 7.98571ZM74.5498 10.4618H77.3128V19.7018H74.546L74.5498 10.4618Z" fill="#929C9A"/>
<path id="Vector_9" d="M89.2391 15.0817C89.271 15.6924 89.1824 16.3033 88.9782 16.8795C88.774 17.4556 88.4584 17.9856 88.0494 18.4389C87.6404 18.8921 87.1461 19.2598 86.5951 19.5208C86.044 19.7817 85.447 19.9307 84.8384 19.9593C84.3265 19.9873 83.8149 19.9007 83.3405 19.7057C82.8661 19.5106 82.441 19.2121 82.0958 18.8318V23.3967H79.3337V10.4617H82.0958V11.3297C82.4411 10.9496 82.8664 10.6513 83.3407 10.4565C83.8151 10.2617 84.3266 10.1751 84.8384 10.2031C85.4471 10.2316 86.0443 10.3806 86.5955 10.6415C87.1467 10.9025 87.641 11.2702 88.05 11.7236C88.459 12.1771 88.7747 12.7072 88.9787 13.2835C89.1828 13.8598 89.2713 14.4709 89.2391 15.0817ZM86.477 15.0817C86.4662 14.6493 86.3286 14.2296 86.0813 13.8753C85.834 13.521 85.4881 13.2477 85.0869 13.0898C84.6856 12.9317 84.2469 12.896 83.8255 12.9871C83.4041 13.0781 83.0189 13.2918 82.718 13.6015C82.417 13.9113 82.2138 14.3031 82.1337 14.7282C82.0537 15.1533 82.1002 15.5925 82.2677 15.9911C82.4351 16.3897 82.7161 16.7299 83.0753 16.9691C83.4344 17.2082 83.8558 17.3358 84.2869 17.3357C84.5828 17.3489 84.8782 17.2992 85.1536 17.1898C85.429 17.0805 85.6783 16.9139 85.8851 16.7011C86.0919 16.4882 86.2515 16.234 86.3535 15.9549C86.4555 15.6758 86.4977 15.3782 86.477 15.0817Z" fill="#929C9A"/>
<path id="Vector_10" d="M97.7626 16.9288C97.7626 19.054 95.9221 19.9593 93.9337 19.9593C93.1302 20.0323 92.3236 19.8619 91.6179 19.4698C90.9121 19.0778 90.3398 18.4823 89.9747 17.7604L92.3676 16.3931C92.4644 16.7267 92.6724 17.0171 92.9567 17.2154C93.2409 17.4138 93.585 17.5084 93.93 17.4832C94.5922 17.4832 94.9242 17.2797 94.9242 16.9111C94.9242 15.8937 90.3942 16.4304 90.3942 13.2337C90.3942 11.2187 92.0886 10.2032 94.0035 10.2032C94.7233 10.1803 95.4357 10.3517 96.0672 10.6994C96.6986 11.0471 97.2259 11.5584 97.5933 12.18L95.2367 13.4549C95.1334 13.2129 94.9614 13.0067 94.7419 12.8622C94.5224 12.7176 94.2658 12.6411 94.0035 12.642C93.5245 12.642 93.2297 12.8287 93.2297 13.1591C93.2335 14.2128 97.7626 13.51 97.7626 16.9288Z" fill="#929C9A"/>
<path id="Vector_11" d="M107.852 10.4617V19.7017H105.09V18.8327C104.771 19.2161 104.366 19.5183 103.909 19.7143C103.451 19.9103 102.955 19.9945 102.458 19.9602C100.598 19.9602 99.0171 18.6302 99.0171 16.1335V10.4617H101.779V15.7275C101.756 15.9476 101.781 16.1701 101.853 16.3795C101.923 16.5889 102.04 16.7802 102.192 16.9401C102.345 17.1 102.53 17.2246 102.735 17.3053C102.94 17.3861 103.16 17.421 103.381 17.4075C104.393 17.4075 105.093 16.8167 105.093 15.5045V10.4645L107.852 10.4617Z" fill="#929C9A"/>
<path id="Vector_12" d="M123.69 14.028V19.7008H120.928V14.2679C120.928 13.3439 120.486 12.7531 119.603 12.7531C118.682 12.7531 118.166 13.3999 118.166 14.49V19.7008H115.405V14.2679C115.405 13.3439 114.963 12.7531 114.078 12.7531C113.158 12.7531 112.643 13.3999 112.643 14.49V19.7008H109.88V10.4608H112.643V11.3102C112.929 10.9334 113.305 10.6345 113.735 10.441C114.167 10.2475 114.639 10.1654 115.11 10.2023C115.582 10.1791 116.053 10.2792 116.476 10.4928C116.898 10.7064 117.258 11.0263 117.521 11.4212C117.827 11.008 118.233 10.6795 118.7 10.4663C119.166 10.2532 119.68 10.1624 120.191 10.2023C122.305 10.2032 123.69 11.718 123.69 14.028Z" fill="#929C9A"/>
<path id="Vector_13" d="M126.026 10.4049C127.158 10.4049 128.076 9.48389 128.076 8.34784C128.076 7.21175 127.158 6.29077 126.026 6.29077C124.894 6.29077 123.976 7.21175 123.976 8.34784C123.976 9.48389 124.894 10.4049 126.026 10.4049Z" fill="#929C9A"/>
</g>
</svg>
